<svg width="24" height="24" viewBox="0 0 24 24" fill="none" xmlns="http://www.w3.org/2000/svg">
<path fill-rule="evenodd" clip-rule="evenodd" d="M4 9.00001H5.99978C6.00007 9.36655 6.20262 9.71935 6.55279 9.89443C7.04676 10.1414 7.64744 9.9412 7.89443 9.44722L8.11803 9.00001H15.882L16.1056 9.44722C16.3526 9.9412 16.9532 10.1414 17.4472 9.89443C17.7974 9.71935 17.9999 9.36655 18.0002 9.00001H20V11H4V9.00001ZM17.118 7.00001H20C21.1046 7.00001 22 7.89544 22 9.00001V11C22 11.84 21.4821 12.5591 20.7482 12.8553C20.7516 12.9031 20.7534 12.9514 20.7534 13C20.7534 13.1459 20.7374 13.2914 20.7058 13.4339L19.1502 20.4339C18.9469 21.3489 18.1352 22 17.1978 22H6.80217C5.86477 22 5.05315 21.3489 4.8498 20.4339L3.29424 13.4339C3.25095 13.239 3.23767 13.0445 3.25134 12.8552C2.51767 12.5588 2 11.8399 2 11V9.00001C2 7.89544 2.89543 7.00001 4 7.00001H6.88197L9.10557 2.55279C9.35256 2.05881 9.95323 1.85859 10.4472 2.10558C10.9412 2.35257 11.1414 2.95324 10.8944 3.44722L9.11803 7.00001H14.882L13.1056 3.44722C12.8586 2.95324 13.0588 2.35257 13.5528 2.10558C14.0468 1.85859 14.6474 2.05881 14.8944 2.55279L17.118 7.00001ZM5.24662 13H18.7534L17.1978 20H6.80217L5.24662 13Z" fill="#53889D"/>
</svg>
