<svg width="236" height="148" viewBox="0 0 236 148" fill="none" xmlns="http://www.w3.org/2000/svg">
<g filter="url(#filter0_d)">
<rect x="9" y="9" width="216" height="128" rx="8" fill="#C4C4C4"/>
<rect x="9" y="9" width="216" height="128" rx="8" fill="url(#paint0_linear)"/>
</g>
<mask id="mask0" mask-type="alpha" maskUnits="userSpaceOnUse" x="9" y="9" width="216" height="128">
<rect x="9" y="9" width="216" height="128" rx="8" fill="#BBD1D9"/>
</mask>
<g mask="url(#mask0)">
<g style="mix-blend-mode:overlay">
<path d="M60 64.0615C41 87.0615 43 98.5 -13 102.5L7 8C48.3333 -1.83333 118.147 -12.8008 113.5 19.0615C106.5 67.0615 69.8768 52.1054 60 64.0615Z" fill="#F3A492"/>
<path d="M171.5 166.062C202.7 184.862 218.5 180.562 222.5 176.062C232.167 144.728 251.5 77.5615 251.5 59.5615C251.5 37.0615 236 7.56149 220.5 5.56149C205 3.56149 191.656 45.937 171.5 62.0615C141.5 86.0615 121.868 83.0615 118 114.561C115.154 137.733 132.5 142.562 171.5 166.062Z" fill="#F3A492"/>
</g>
</g>
<path d="M27.648 98H30.24V88.912H33.824V86.8H24.064V88.912H27.648V98ZM38.2636 98.128C40.9996 98.128 42.9836 96.288 42.9836 93.696C42.9836 91.104 40.9996 89.264 38.2636 89.264C35.5276 89.264 33.5276 91.104 33.5276 93.696C33.5276 96.288 35.5276 98.128 38.2636 98.128ZM38.2636 96.08C37.0156 96.08 36.0556 95.184 36.0556 93.696C36.0556 92.208 37.0156 91.312 38.2636 91.312C39.5116 91.312 40.4556 92.208 40.4556 93.696C40.4556 95.184 39.5116 96.08 38.2636 96.08ZM49.74 89.264C48.588 89.264 47.66 89.632 47.036 90.384V89.392H44.652V101.104H47.148V97.088C47.788 97.792 48.668 98.128 49.74 98.128C52.156 98.128 54.028 96.4 54.028 93.696C54.028 90.992 52.156 89.264 49.74 89.264ZM49.308 96.08C48.06 96.08 47.116 95.184 47.116 93.696C47.116 92.208 48.06 91.312 49.308 91.312C50.556 91.312 51.5 92.208 51.5 93.696C51.5 95.184 50.556 96.08 49.308 96.08ZM59.1901 86.8V88.88H61.4301V98H64.0221V86.8H59.1901ZM70.7678 98.192C73.5358 98.192 75.5678 96.096 75.5678 92.4C75.5678 88.704 73.5358 86.608 70.7678 86.608C68.0158 86.608 65.9678 88.704 65.9678 92.4C65.9678 96.096 68.0158 98.192 70.7678 98.192ZM70.7678 96C69.4878 96 68.5918 94.944 68.5918 92.4C68.5918 89.856 69.4878 88.8 70.7678 88.8C72.0638 88.8 72.9598 89.856 72.9598 92.4C72.9598 94.944 72.0638 96 70.7678 96ZM31.1 104.975C31.9667 104.975 32.6583 105.058 33.175 105.225C33.6917 105.392 34.2167 105.633 34.75 105.95C34.9333 106.05 35.0917 106.133 35.225 106.2C35.375 106.267 35.5 106.3 35.6 106.3C35.75 106.3 35.8667 106.217 35.95 106.05C36.0333 105.867 36.1 105.583 36.15 105.2H36.725C36.6417 106.317 36.6 108.217 36.6 110.9H36.025C35.9583 110 35.75 109.142 35.4 108.325C35.0667 107.508 34.5833 106.85 33.95 106.35C33.3333 105.833 32.6083 105.575 31.775 105.575C30.9583 105.575 30.2917 105.808 29.775 106.275C29.275 106.725 29.025 107.342 29.025 108.125C29.025 108.708 29.15 109.217 29.4 109.65C29.65 110.083 30 110.483 30.45 110.85C30.9 111.2 31.5917 111.683 32.525 112.3L33.325 112.85C34.3083 113.5 35.0833 114.067 35.65 114.55C36.2167 115.033 36.675 115.6 37.025 116.25C37.3917 116.883 37.575 117.625 37.575 118.475C37.575 119.542 37.3 120.442 36.75 121.175C36.2 121.892 35.45 122.433 34.5 122.8C33.5667 123.167 32.525 123.35 31.375 123.35C30.4417 123.35 29.6667 123.267 29.05 123.1C28.4333 122.933 27.8667 122.708 27.35 122.425C26.9833 122.192 26.7 122.075 26.5 122.075C26.35 122.075 26.2333 122.167 26.15 122.35C26.0667 122.517 26 122.792 25.95 123.175H25.375C25.4417 122.125 25.475 119.875 25.475 116.425H26.05C26.1667 118.292 26.5833 119.808 27.3 120.975C28.0167 122.125 29.1167 122.7 30.6 122.7C31.5 122.7 32.2417 122.458 32.825 121.975C33.4083 121.492 33.7 120.8 33.7 119.9C33.7 118.967 33.4 118.167 32.8 117.5C32.2 116.833 31.25 116.083 29.95 115.25C28.95 114.6 28.15 114.033 27.55 113.55C26.95 113.067 26.4583 112.5 26.075 111.85C25.6917 111.183 25.5 110.417 25.5 109.55C25.5 108.55 25.75 107.708 26.25 107.025C26.7667 106.325 27.45 105.808 28.3 105.475C29.15 105.142 30.0833 104.975 31.1 104.975ZM51.6496 120.275C51.6496 121.042 51.7663 121.6 51.9996 121.95C52.2496 122.3 52.6663 122.475 53.2496 122.475V123C52.7329 122.95 52.2163 122.925 51.6996 122.925C50.2496 122.925 49.0329 123.042 48.0496 123.275V121.025C47.2829 122.575 45.9413 123.35 44.0246 123.35C42.7746 123.35 41.8663 123.025 41.2996 122.375C41.0329 122.058 40.8329 121.65 40.6996 121.15C40.5829 120.633 40.5246 119.958 40.5246 119.125V112.8C40.5246 112.033 40.3996 111.475 40.1496 111.125C39.9163 110.775 39.5079 110.6 38.9246 110.6V110.075C39.4413 110.125 39.9579 110.15 40.4746 110.15C41.9246 110.15 43.1413 110.033 44.1246 109.8V120.15C44.1246 120.85 44.2246 121.375 44.4246 121.725C44.6413 122.075 45.0413 122.25 45.6246 122.25C46.2913 122.25 46.8579 121.975 47.3246 121.425C47.8079 120.858 48.0496 120.167 48.0496 119.35V112.8C48.0496 112.033 47.9246 111.475 47.6746 111.125C47.4413 110.775 47.0329 110.6 46.4496 110.6V110.075C46.9829 110.125 47.4996 110.15 47.9996 110.15C49.4496 110.15 50.6663 110.033 51.6496 109.8V120.275ZM74.4607 120.675C74.4607 121.358 74.5774 121.833 74.8107 122.1C75.0607 122.35 75.4774 122.475 76.0607 122.475V123C74.3941 122.933 73.2941 122.9 72.7607 122.9C72.2941 122.9 71.2607 122.933 69.6607 123V122.475C70.1107 122.475 70.4191 122.35 70.5857 122.1C70.7691 121.85 70.8607 121.375 70.8607 120.675V112.9C70.8607 112.2 70.7524 111.683 70.5357 111.35C70.3357 111 69.9441 110.825 69.3607 110.825C68.7441 110.825 68.2024 111.083 67.7357 111.6C67.2857 112.117 67.0191 112.75 66.9357 113.5V113.95V120.675C66.9357 121.358 67.0357 121.833 67.2357 122.1C67.4524 122.35 67.8357 122.475 68.3857 122.475V123C66.7857 122.933 65.7357 122.9 65.2357 122.9C64.7691 122.9 63.7357 122.933 62.1357 123V122.475C62.5857 122.475 62.8941 122.35 63.0607 122.1C63.2441 121.833 63.3357 121.358 63.3357 120.675V112.9C63.3357 112.2 63.2441 111.683 63.0607 111.35C62.8774 111 62.5191 110.825 61.9857 110.825C61.3191 110.825 60.7441 111.108 60.2607 111.675C59.7941 112.225 59.5607 112.908 59.5607 113.725V120.675C59.5607 121.358 59.6441 121.833 59.8107 122.1C59.9941 122.35 60.3107 122.475 60.7607 122.475V123C59.2941 122.933 58.3107 122.9 57.8107 122.9C57.3107 122.9 56.1607 122.933 54.3607 123V122.475C54.9607 122.475 55.3774 122.35 55.6107 122.1C55.8441 121.833 55.9607 121.358 55.9607 120.675V112.8C55.9607 112.033 55.8441 111.475 55.6107 111.125C55.3774 110.775 54.9607 110.6 54.3607 110.6V110.075C54.8941 110.125 55.4107 110.15 55.9107 110.15C57.3941 110.15 58.6107 110.033 59.5607 109.8V112.05C60.2941 110.5 61.5857 109.725 63.4357 109.725C64.7024 109.725 65.6191 110.05 66.1857 110.7C66.5024 111.033 66.7107 111.533 66.8107 112.2C67.2441 111.3 67.8107 110.667 68.5107 110.3C69.2107 109.917 70.0274 109.725 70.9607 109.725C72.2274 109.725 73.1441 110.05 73.7107 110.7C73.9774 111 74.1691 111.408 74.2857 111.925C74.4024 112.442 74.4607 113.117 74.4607 113.95V120.675ZM97.0926 120.675C97.0926 121.358 97.2092 121.833 97.4426 122.1C97.6926 122.35 98.1092 122.475 98.6926 122.475V123C97.0259 122.933 95.9259 122.9 95.3926 122.9C94.9259 122.9 93.8926 122.933 92.2926 123V122.475C92.7426 122.475 93.0509 122.35 93.2176 122.1C93.4009 121.85 93.4926 121.375 93.4926 120.675V112.9C93.4926 112.2 93.3842 111.683 93.1676 111.35C92.9676 111 92.5759 110.825 91.9926 110.825C91.3759 110.825 90.8342 111.083 90.3676 111.6C89.9176 112.117 89.6509 112.75 89.5676 113.5V113.95V120.675C89.5676 121.358 89.6676 121.833 89.8676 122.1C90.0842 122.35 90.4676 122.475 91.0176 122.475V123C89.4176 122.933 88.3676 122.9 87.8676 122.9C87.4009 122.9 86.3676 122.933 84.7676 123V122.475C85.2176 122.475 85.5259 122.35 85.6926 122.1C85.8759 121.833 85.9676 121.358 85.9676 120.675V112.9C85.9676 112.2 85.8759 111.683 85.6926 111.35C85.5092 111 85.1509 110.825 84.6176 110.825C83.9509 110.825 83.3759 111.108 82.8926 111.675C82.4259 112.225 82.1926 112.908 82.1926 113.725V120.675C82.1926 121.358 82.2759 121.833 82.4426 122.1C82.6259 122.35 82.9426 122.475 83.3926 122.475V123C81.9259 122.933 80.9426 122.9 80.4426 122.9C79.9426 122.9 78.7926 122.933 76.9926 123V122.475C77.5926 122.475 78.0092 122.35 78.2426 122.1C78.4759 121.833 78.5926 121.358 78.5926 120.675V112.8C78.5926 112.033 78.4759 111.475 78.2426 111.125C78.0092 110.775 77.5926 110.6 76.9926 110.6V110.075C77.5259 110.125 78.0426 110.15 78.5426 110.15C80.0259 110.15 81.2426 110.033 82.1926 109.8V112.05C82.9259 110.5 84.2176 109.725 86.0676 109.725C87.3342 109.725 88.2509 110.05 88.8176 110.7C89.1342 111.033 89.3426 111.533 89.4426 112.2C89.8759 111.3 90.4426 110.667 91.1426 110.3C91.8426 109.917 92.6592 109.725 93.5926 109.725C94.8592 109.725 95.7759 110.05 96.3426 110.7C96.6092 111 96.8009 111.408 96.9176 111.925C97.0342 112.442 97.0926 113.117 97.0926 113.95V120.675ZM106.974 121.3C108.341 121.3 109.441 120.633 110.274 119.3L110.724 119.45C110.391 120.533 109.791 121.458 108.924 122.225C108.074 122.975 107.008 123.35 105.724 123.35C103.958 123.35 102.549 122.792 101.499 121.675C100.466 120.542 99.9494 118.875 99.9494 116.675C99.9494 114.425 100.508 112.708 101.624 111.525C102.741 110.325 104.224 109.725 106.074 109.725C109.208 109.725 110.774 111.575 110.774 115.275H103.749C103.733 115.525 103.724 115.917 103.724 116.45C103.724 117.55 103.874 118.467 104.174 119.2C104.491 119.933 104.891 120.467 105.374 120.8C105.874 121.133 106.408 121.3 106.974 121.3ZM105.924 110.25C105.324 110.25 104.824 110.625 104.424 111.375C104.041 112.108 103.799 113.25 103.699 114.8H107.624C107.658 113.483 107.524 112.4 107.224 111.55C106.941 110.683 106.508 110.25 105.924 110.25ZM120.676 109.725C121.426 109.725 121.992 109.95 122.376 110.4C122.759 110.85 122.951 111.392 122.951 112.025C122.951 112.642 122.767 113.15 122.401 113.55C122.051 113.933 121.584 114.125 121.001 114.125C120.434 114.125 119.984 113.983 119.651 113.7C119.317 113.4 119.151 113.008 119.151 112.525C119.151 111.725 119.517 111.075 120.251 110.575C120.184 110.558 120.084 110.55 119.951 110.55C119.784 110.55 119.651 110.567 119.551 110.6C118.917 110.7 118.376 111.083 117.926 111.75C117.492 112.417 117.276 113.1 117.276 113.8V120.425C117.276 121.192 117.459 121.725 117.826 122.025C118.209 122.325 118.809 122.475 119.626 122.475V123C119.392 123 119.201 122.992 119.051 122.975C117.351 122.925 116.217 122.9 115.651 122.9C115.201 122.9 114.176 122.925 112.576 122.975C112.442 122.992 112.276 123 112.076 123V122.475C112.676 122.475 113.092 122.35 113.326 122.1C113.559 121.833 113.676 121.358 113.676 120.675V112.8C113.676 112.033 113.559 111.475 113.326 111.125C113.092 110.775 112.676 110.6 112.076 110.6V110.075C112.609 110.125 113.126 110.15 113.626 110.15C115.109 110.15 116.326 110.033 117.276 109.8V112.125C117.592 111.408 118.051 110.833 118.651 110.4C119.251 109.95 119.926 109.725 120.676 109.725ZM142.668 105.3C142.552 106.717 142.493 107.983 142.493 109.1C142.493 109.883 142.518 110.517 142.568 111H141.993C141.66 109.117 141.16 107.792 140.493 107.025C139.827 106.258 138.893 105.875 137.693 105.875H136.868C136.352 105.875 135.977 105.917 135.743 106C135.51 106.083 135.352 106.25 135.268 106.5C135.185 106.733 135.143 107.117 135.143 107.65V113.95H136.018C136.902 113.95 137.568 113.625 138.018 112.975C138.485 112.325 138.81 111.55 138.993 110.65H139.568C139.518 111.35 139.493 112.133 139.493 113V114.2C139.493 115.05 139.543 116.233 139.643 117.75H139.068C138.718 115.55 137.702 114.45 136.018 114.45H135.143V120.2C135.143 120.867 135.21 121.358 135.343 121.675C135.493 121.975 135.743 122.175 136.093 122.275C136.46 122.375 137.035 122.433 137.818 122.45V123C135.768 122.95 134.243 122.925 133.243 122.925C132.41 122.925 131.36 122.942 130.093 122.975L129.293 123V122.5C129.843 122.467 130.243 122.4 130.493 122.3C130.76 122.2 130.935 122.008 131.018 121.725C131.118 121.442 131.168 120.983 131.168 120.35V107.95C131.168 107.317 131.118 106.858 131.018 106.575C130.935 106.292 130.76 106.1 130.493 106C130.243 105.9 129.843 105.833 129.293 105.8V105.3C131.093 105.35 133.81 105.375 137.443 105.375C139.893 105.375 141.635 105.35 142.668 105.3ZM147.088 103.625C147.788 103.625 148.338 103.8 148.738 104.15C149.155 104.483 149.363 104.95 149.363 105.55C149.363 106.15 149.155 106.625 148.738 106.975C148.338 107.308 147.788 107.475 147.088 107.475C146.388 107.475 145.83 107.308 145.413 106.975C145.013 106.625 144.813 106.15 144.813 105.55C144.813 104.95 145.013 104.483 145.413 104.15C145.83 103.8 146.388 103.625 147.088 103.625ZM149.038 120.675C149.038 121.358 149.155 121.833 149.388 122.1C149.638 122.35 150.055 122.475 150.638 122.475V123C148.972 122.933 147.863 122.9 147.313 122.9C146.797 122.9 145.638 122.933 143.838 123V122.475C144.438 122.475 144.855 122.35 145.088 122.1C145.322 121.833 145.438 121.358 145.438 120.675V112.8C145.438 112.033 145.322 111.475 145.088 111.125C144.855 110.775 144.438 110.6 143.838 110.6V110.075C144.372 110.125 144.888 110.15 145.388 110.15C146.872 110.15 148.088 110.033 149.038 109.8V120.675ZM158.224 109.725C158.841 109.725 159.424 109.792 159.974 109.925C160.524 110.058 160.982 110.242 161.349 110.475C161.782 110.742 162.116 111.083 162.349 111.5C162.599 111.9 162.724 112.342 162.724 112.825C162.724 113.408 162.541 113.892 162.174 114.275C161.807 114.642 161.332 114.825 160.749 114.825C160.166 114.825 159.699 114.658 159.349 114.325C158.999 113.992 158.824 113.542 158.824 112.975C158.824 112.475 158.982 112.042 159.299 111.675C159.616 111.308 160.007 111.058 160.474 110.925C160.341 110.742 160.132 110.6 159.849 110.5C159.582 110.383 159.291 110.325 158.974 110.325C157.974 110.325 157.191 110.875 156.624 111.975C156.074 113.058 155.799 114.483 155.799 116.25C155.799 118.033 156.116 119.317 156.749 120.1C157.382 120.883 158.174 121.275 159.124 121.275C159.691 121.275 160.257 121.125 160.824 120.825C161.407 120.525 161.932 120 162.399 119.25L162.824 119.4C162.491 120.483 161.907 121.417 161.074 122.2C160.241 122.967 159.166 123.35 157.849 123.35C156.132 123.35 154.732 122.783 153.649 121.65C152.566 120.517 152.024 118.833 152.024 116.6C152.024 115.133 152.291 113.883 152.824 112.85C153.357 111.817 154.091 111.042 155.024 110.525C155.957 109.992 157.024 109.725 158.224 109.725ZM169.201 110.075H172.151V110.575H169.201V120.675C169.201 121.175 169.285 121.533 169.451 121.75C169.635 121.95 169.918 122.05 170.301 122.05C171.018 122.05 171.585 121.55 172.001 120.55L172.426 120.775C171.793 122.492 170.651 123.35 169.001 123.35C167.901 123.35 167.068 123.067 166.501 122.5C166.151 122.15 165.91 121.717 165.776 121.2C165.66 120.667 165.601 119.942 165.601 119.025V110.575H163.501V110.075H165.601V106.775C166.985 106.775 168.185 106.508 169.201 105.975V110.075ZM176.165 103.625C176.865 103.625 177.415 103.8 177.815 104.15C178.232 104.483 178.44 104.95 178.44 105.55C178.44 106.15 178.232 106.625 177.815 106.975C177.415 107.308 176.865 107.475 176.165 107.475C175.465 107.475 174.907 107.308 174.49 106.975C174.09 106.625 173.89 106.15 173.89 105.55C173.89 104.95 174.09 104.483 174.49 104.15C174.907 103.8 175.465 103.625 176.165 103.625ZM178.115 120.675C178.115 121.358 178.232 121.833 178.465 122.1C178.715 122.35 179.132 122.475 179.715 122.475V123C178.049 122.933 176.94 122.9 176.39 122.9C175.874 122.9 174.715 122.933 172.915 123V122.475C173.515 122.475 173.932 122.35 174.165 122.1C174.399 121.833 174.515 121.358 174.515 120.675V112.8C174.515 112.033 174.399 111.475 174.165 111.125C173.932 110.775 173.515 110.6 172.915 110.6V110.075C173.449 110.125 173.965 110.15 174.465 110.15C175.949 110.15 177.165 110.033 178.115 109.8V120.675ZM187.251 109.725C189.168 109.725 190.668 110.275 191.751 111.375C192.835 112.458 193.376 114.183 193.376 116.55C193.376 118.917 192.835 120.642 191.751 121.725C190.668 122.808 189.168 123.35 187.251 123.35C185.351 123.35 183.851 122.808 182.751 121.725C181.668 120.642 181.126 118.917 181.126 116.55C181.126 114.183 181.668 112.458 182.751 111.375C183.851 110.275 185.351 109.725 187.251 109.725ZM187.251 110.225C186.535 110.225 185.96 110.75 185.526 111.8C185.11 112.833 184.901 114.417 184.901 116.55C184.901 118.683 185.11 120.267 185.526 121.3C185.96 122.333 186.535 122.85 187.251 122.85C187.985 122.85 188.56 122.342 188.976 121.325C189.393 120.292 189.601 118.7 189.601 116.55C189.601 114.4 189.385 112.808 188.951 111.775C188.535 110.742 187.968 110.225 187.251 110.225ZM204.237 109.725C205.504 109.725 206.42 110.05 206.987 110.7C207.27 111.017 207.47 111.425 207.587 111.925C207.704 112.425 207.762 113.1 207.762 113.95V120.675C207.762 121.358 207.879 121.833 208.112 122.1C208.362 122.35 208.779 122.475 209.362 122.475V123C207.695 122.933 206.595 122.9 206.062 122.9C205.562 122.9 204.479 122.933 202.812 123V122.475C203.312 122.475 203.662 122.35 203.862 122.1C204.062 121.833 204.162 121.358 204.162 120.675V112.9C204.162 112.217 204.045 111.7 203.812 111.35C203.595 111 203.195 110.825 202.612 110.825C201.929 110.825 201.345 111.108 200.862 111.675C200.379 112.225 200.137 112.908 200.137 113.725V120.675C200.137 121.358 200.237 121.833 200.437 122.1C200.637 122.35 200.987 122.475 201.487 122.475V123C199.954 122.933 198.92 122.9 198.387 122.9C197.887 122.9 196.737 122.933 194.937 123V122.475C195.537 122.475 195.954 122.35 196.187 122.1C196.42 121.833 196.537 121.358 196.537 120.675V112.8C196.537 112.033 196.42 111.475 196.187 111.125C195.954 110.775 195.537 110.6 194.937 110.6V110.075C195.47 110.125 195.987 110.15 196.487 110.15C197.97 110.15 199.187 110.033 200.137 109.8V112.05C200.887 110.5 202.254 109.725 204.237 109.725Z" fill="white"/>
<path d="M43.0911 64.5556H34.9089C34.9089 64.5556 36.4122 71.7778 37.5211 75.3911C38.63 79.0067 42.6367 79 43.5456 79C45.3622 79 48.4611 79.0067 49.57 75.3911C50.6778 71.7778 53.0922 64.5556 53.0922 64.5556H43.0911Z" fill="#FFCC4D"/>
<path d="M44 70.1111C47.8444 70.1111 50.4789 69.2767 51.8856 68.1944C52.2733 67.0167 52.6111 65.9978 52.83 65.34C52.636 65.032 52.383 64.7654 52.0856 64.5556H35.9144C35.5356 64.8356 35.2644 65.14 35.1011 65.4633C35.2222 66.0278 35.3922 66.8122 35.5978 67.7267C36.8078 69.0267 39.6167 70.1111 44 70.1111Z" fill="#FFAC33"/>
<path d="M34 61.2222V64.5556C34 66.3967 38.4778 67.8889 44 67.8889C49.5222 67.8889 54 66.3967 54 64.5556V61.2222H34Z" fill="#FFCC4D"/>
<path d="M53.0922 61.7778C53.0922 63.3122 49.0211 64.5556 44 64.5556C38.9789 64.5556 34.9089 63.3122 34.9089 61.7778C34.9089 60.2433 38.9789 59 44 59C49.0211 59 53.0922 60.2433 53.0922 61.7778Z" fill="#F4900C"/>
<path d="M53.8911 54.4533C54.1453 53.3609 54.0449 52.2159 53.6044 51.1844C53.1647 50.1441 52.403 49.2721 51.4311 48.6967C51.6536 47.8734 51.5833 46.9983 51.2322 46.2211C50.6756 44.9489 49.4667 44.1067 48.1056 43.8733C48.2744 43.4944 48.3433 43.0289 48.1489 42.4422C47.4878 40.4622 44.8489 41.7933 42.87 39.1544C41.23 40.1378 40.8956 41.6078 40.9733 42.8378C39.4711 43.1056 38.6044 43.4289 38.6044 43.4289V43.43C38.152 43.613 37.7644 43.9269 37.4914 44.3315C37.2184 44.7361 37.0725 45.213 37.0722 45.7011C37.0722 46.2456 37.2556 46.7444 37.5567 47.1511L37.0233 47.35L37.0244 47.3522C35.4867 47.9267 34.4022 49.3156 34.4022 50.94C34.4022 51.6311 34.6144 52.27 34.9578 52.8311C33.0844 53.6644 31.7778 55.4867 31.7778 57.6156C31.7778 60.3878 33.9878 62.6356 36.7867 62.8511C39.7456 63.7689 45.6644 63.5178 50.2044 62.75C52.8389 62.3056 55.5278 60.7278 55.5278 58.0556C55.5264 57.3733 55.3797 56.6993 55.0975 56.0781C54.8153 55.457 54.404 54.9031 53.8911 54.4533Z" fill="#FFE8B6"/>
<path d="M40.3889 59.2356C37.9 59.94 34.1644 60.12 32.1778 59.5844C32.9833 61.5222 34.9311 62.8922 37.2167 62.8922C44.0444 62.8922 51.0133 58.2444 51.0133 58.2444C53.2011 56.8822 54.3156 54.7333 53.9567 52.48C51.6878 55.6889 42.9911 58.4989 40.3889 59.2356ZM38.5944 54.8122C43.86 54.8122 49.2333 51.4022 49.2333 51.4022C50.9922 50.3611 51.8689 48.6933 51.4778 46.9644C44.7822 51.3178 38.6289 52.5978 34.9022 52.74C35.6056 53.9667 36.9867 54.8122 38.5944 54.8122ZM37.1478 46.2833C37.2772 46.8154 37.5814 47.2887 38.0117 47.6274C38.442 47.966 38.9735 48.1504 39.5211 48.1511C40.2489 48.1511 40.9789 48.0278 41.6722 47.8433C42.0989 47.7144 42.5211 47.5767 42.9422 47.4267C44.56 46.7989 45.7389 45.9922 45.7389 45.9922C46.9122 45.24 48.12 43.9111 48.12 43.9111C48.12 43.9111 48.53 42.9878 47.8422 42.4456C45.9033 44.3878 39.7167 46.31 37.1478 46.2833Z" fill="#FFD983"/>
<defs>
<filter id="filter0_d" x="0" y="0" width="236" height="148" filterUnits="userSpaceOnUse" color-interpolation-filters="sRGB">
<feFlood flood-opacity="0" result="BackgroundImageFix"/>
<feColorMatrix in="SourceAlpha" type="matrix" values="0 0 0 0 0 0 0 0 0 0 0 0 0 0 0 0 0 0 127 0" result="hardAlpha"/>
<feOffset dx="1" dy="1"/>
<feGaussianBlur stdDeviation="5"/>
<feColorMatrix type="matrix" values="0 0 0 0 0.305882 0 0 0 0 0.215686 0 0 0 0 0.215686 0 0 0 0.2 0"/>
<feBlend mode="normal" in2="BackgroundImageFix" result="effect1_dropShadow"/>
<feBlend mode="normal" in="SourceGraphic" in2="effect1_dropShadow" result="shape"/>
</filter>
<linearGradient id="paint0_linear" x1="9" y1="73" x2="225" y2="73" gradientUnits="userSpaceOnUse">
<stop stop-color="#F3A492"/>
<stop offset="1" stop-color="#D96F6E"/>
</linearGradient>
</defs>
</svg>
