<svg width="236" height="148" viewBox="0 0 236 148" fill="none" xmlns="http://www.w3.org/2000/svg">
<g filter="url(#filter0_d)">
<rect x="9" y="9" width="216" height="128" rx="8" fill="#CEDEE4"/>
<rect x="9" y="9" width="216" height="128" rx="8" fill="url(#paint0_radial)"/>
</g>
<path d="M107.771 30.105C110.081 30.105 111.911 30.615 113.261 31.635C114.611 32.625 115.286 34.02 115.286 35.82C115.286 37.05 114.926 38.19 114.206 39.24C113.516 40.29 112.691 41.22 111.731 42.03C110.771 42.84 109.451 43.845 107.771 45.045C105.611 46.545 104.096 47.745 103.226 48.645H112.946C113.756 48.645 114.356 48.585 114.746 48.465C115.166 48.345 115.451 48.15 115.601 47.88C115.751 47.61 115.871 47.19 115.961 46.62H116.906C116.906 50.16 116.966 52.695 117.086 54.225C116.426 54.075 114.191 54 110.381 54H97.2855V53.145C97.6755 52.725 98.4405 52.005 99.5805 50.985C101.321 49.395 102.761 47.985 103.901 46.755C105.071 45.495 106.076 44.055 106.916 42.435C107.786 40.785 108.221 39.075 108.221 37.305C108.221 35.715 107.861 34.56 107.141 33.84C106.451 33.09 105.416 32.715 104.036 32.715C102.776 32.715 101.651 33.015 100.661 33.615C99.7005 34.185 98.8155 35.04 98.0055 36.18L97.2405 35.73C99.4605 31.98 102.971 30.105 107.771 30.105ZM136.275 29.025C136.275 32.535 136.335 35.055 136.455 36.585C135.825 36.435 133.74 36.36 130.2 36.36H123.27L122.55 44.055C124.29 42.855 126.555 42.255 129.345 42.255C132.225 42.255 134.4 42.915 135.87 44.235C137.37 45.555 138.12 47.265 138.12 49.365C138.12 51.585 137.25 53.55 135.51 55.26C133.77 57 131.52 58.335 128.76 59.265C126.03 60.195 123.21 60.66 120.3 60.66V59.85C122.19 59.82 123.99 59.4 125.7 58.59C127.41 57.81 128.79 56.64 129.84 55.08C130.89 53.55 131.415 51.735 131.415 49.635C131.415 47.745 130.965 46.305 130.065 45.315C129.195 44.295 127.92 43.785 126.24 43.785C125.43 43.785 124.71 43.89 124.08 44.1C123.45 44.31 122.82 44.64 122.19 45.09L121.56 44.685L123 30.6C123.6 30.72 124.41 30.78 125.43 30.78H132.855C133.725 30.78 134.325 30.66 134.655 30.42C135.015 30.15 135.24 29.685 135.33 29.025H136.275Z" fill="url(#paint1_linear)"/>
<path d="M107.771 90.105C110.081 90.105 111.911 90.615 113.261 91.635C114.611 92.625 115.286 94.02 115.286 95.82C115.286 97.05 114.926 98.19 114.206 99.24C113.516 100.29 112.691 101.22 111.731 102.03C110.771 102.84 109.451 103.845 107.771 105.045C105.611 106.545 104.096 107.745 103.226 108.645H112.946C113.756 108.645 114.356 108.585 114.746 108.465C115.166 108.345 115.451 108.15 115.601 107.88C115.751 107.61 115.871 107.19 115.961 106.62H116.906C116.906 110.16 116.966 112.695 117.086 114.225C116.426 114.075 114.191 114 110.381 114H97.2855V113.145C97.6755 112.725 98.4405 112.005 99.5805 110.985C101.321 109.395 102.761 107.985 103.901 106.755C105.071 105.495 106.076 104.055 106.916 102.435C107.786 100.785 108.221 99.075 108.221 97.305C108.221 95.715 107.861 94.56 107.141 93.84C106.451 93.09 105.416 92.715 104.036 92.715C102.776 92.715 101.651 93.015 100.661 93.615C99.7005 94.185 98.8155 95.04 98.0055 96.18L97.2405 95.73C99.4605 91.98 102.971 90.105 107.771 90.105ZM136.275 89.025C136.275 92.535 136.335 95.055 136.455 96.585C135.825 96.435 133.74 96.36 130.2 96.36H123.27L122.55 104.055C124.29 102.855 126.555 102.255 129.345 102.255C132.225 102.255 134.4 102.915 135.87 104.235C137.37 105.555 138.12 107.265 138.12 109.365C138.12 111.585 137.25 113.55 135.51 115.26C133.77 117 131.52 118.335 128.76 119.265C126.03 120.195 123.21 120.66 120.3 120.66V119.85C122.19 119.82 123.99 119.4 125.7 118.59C127.41 117.81 128.79 116.64 129.84 115.08C130.89 113.55 131.415 111.735 131.415 109.635C131.415 107.745 130.965 106.305 130.065 105.315C129.195 104.295 127.92 103.785 126.24 103.785C125.43 103.785 124.71 103.89 124.08 104.1C123.45 104.31 122.82 104.64 122.19 105.09L121.56 104.685L123 90.6C123.6 90.72 124.41 90.78 125.43 90.78H132.855C133.725 90.78 134.325 90.66 134.655 90.42C135.015 90.15 135.24 89.685 135.33 89.025H136.275Z" fill="url(#paint2_linear)"/>
<g clip-path="url(#clip0)">
<path d="M36.626 62.488C36.5149 62.6035 36.4243 62.7371 36.358 62.883L36.35 62.875L25.134 88.141L25.145 88.152C24.937 88.555 25.285 89.375 25.998 90.089C26.711 90.802 27.531 91.15 27.934 90.942L27.944 90.952L53.21 79.735L53.202 79.726C53.349 79.656 53.484 79.571 53.597 79.457C55.159 77.895 52.626 72.83 47.941 68.144C43.254 63.458 38.189 60.926 36.626 62.488Z" fill="#FFAC33"/>
<path d="M38 67L25.416 87.506L25.134 88.141L25.145 88.152C24.937 88.555 25.285 89.375 25.998 90.089C26.23 90.321 26.471 90.497 26.707 90.646L42 72L38 67Z" fill="#FDBE61"/>
<path d="M48.012 68.066C52.682 72.738 55.275 77.718 53.801 79.19C52.328 80.664 47.348 78.072 42.675 73.402C38.004 68.73 35.412 63.748 36.885 62.275C38.359 60.802 43.339 63.394 48.012 68.066Z" fill="#F4900C"/>
<path d="M43.59 68.609C43.488 68.6917 43.3706 68.7533 43.2446 68.7902C43.1186 68.8272 42.9865 68.8386 42.856 68.824C41.988 68.73 41.258 68.428 40.747 67.951C40.206 67.446 39.939 66.768 40.012 66.089C40.14 64.897 41.336 63.803 43.375 64.023C44.168 64.108 44.522 63.853 44.534 63.731C44.548 63.61 44.257 63.285 43.464 63.199C42.596 63.105 41.866 62.803 41.354 62.326C40.813 61.821 40.545 61.143 40.619 60.464C40.749 59.272 41.944 58.178 43.981 58.399C44.559 58.461 44.864 58.342 44.993 58.265C45.096 58.202 45.137 58.142 45.141 58.107C45.153 57.986 44.866 57.661 44.071 57.575C43.9404 57.5611 43.8138 57.5215 43.6985 57.4585C43.5832 57.3955 43.4815 57.3104 43.3992 57.208C43.3169 57.1056 43.2556 56.988 43.2188 56.8618C43.1821 56.7357 43.1706 56.6036 43.185 56.473C43.1988 56.3424 43.2383 56.2158 43.3012 56.1006C43.3641 55.9853 43.4491 55.8836 43.5514 55.8012C43.6537 55.7189 43.7713 55.6576 43.8973 55.6208C44.0234 55.5841 44.1555 55.5726 44.286 55.587C46.323 55.806 47.259 57.129 47.13 58.322C47 59.516 45.805 60.608 43.766 60.389C43.188 60.326 42.886 60.446 42.756 60.523C42.653 60.585 42.611 60.646 42.607 60.68C42.594 60.802 42.883 61.126 43.678 61.212C45.715 61.432 46.651 62.754 46.522 63.947C46.393 65.139 45.198 66.233 43.16 66.012C42.582 65.95 42.278 66.07 42.148 66.146C42.044 66.21 42.004 66.27 42 66.304C41.987 66.425 42.276 66.75 43.07 66.836C43.2666 66.8572 43.4525 66.9363 43.6042 67.0631C43.7559 67.19 43.8666 67.359 43.9223 67.5488C43.9779 67.7386 43.9761 67.9406 43.9169 68.1293C43.8578 68.318 43.744 68.4849 43.59 68.609Z" fill="#F3A492"/>
<path d="M55.661 77.857C57.634 77.3 58.995 78.18 59.319 79.335C59.643 80.489 58.941 81.95 56.969 82.505C56.199 82.721 55.968 83.089 55.999 83.206C56.033 83.324 56.424 83.518 57.192 83.301C59.164 82.746 60.525 83.626 60.849 84.78C61.175 85.935 60.471 87.394 58.498 87.95C57.729 88.166 57.497 88.535 57.531 88.652C57.564 88.769 57.954 88.963 58.723 88.747C58.8506 88.7076 58.9848 88.6941 59.1176 88.7073C59.2505 88.7206 59.3794 88.7603 59.4967 88.8242C59.6139 88.8881 59.7172 88.9748 59.8005 89.0792C59.8837 89.1837 59.9451 89.3037 59.9812 89.4323C60.0173 89.5609 60.0272 89.6954 60.0105 89.8279C59.9937 89.9603 59.9506 90.0881 59.8836 90.2037C59.8167 90.3192 59.7273 90.4202 59.6207 90.5006C59.5141 90.5811 59.3925 90.6393 59.263 90.672C57.292 91.227 55.93 90.349 55.604 89.193C55.28 88.039 55.983 86.58 57.957 86.024C58.727 85.807 58.958 85.44 58.924 85.322C58.892 85.205 58.502 85.01 57.734 85.226C55.76 85.782 54.4 84.904 54.075 83.747C53.75 82.593 54.453 81.134 56.426 80.577C57.194 80.362 57.425 79.992 57.393 79.876C57.359 79.758 56.97 79.564 56.201 79.78C56.0725 79.8233 55.9365 79.84 55.8013 79.8291C55.6661 79.8182 55.5345 79.7799 55.4146 79.7165C55.2947 79.6532 55.1889 79.5661 55.1037 79.4605C55.0185 79.355 54.9556 79.2333 54.919 79.1027C54.8823 78.9721 54.8726 78.8354 54.8904 78.701C54.9082 78.5665 54.9532 78.4371 55.0226 78.3206C55.092 78.2041 55.1844 78.1029 55.2942 78.0232C55.4039 77.9435 55.5287 77.8869 55.661 77.857Z" fill="#BBD1D9"/>
<path d="M48.001 75.16C47.7939 75.1597 47.592 75.0952 47.4231 74.9754C47.2542 74.8556 47.1267 74.6863 47.058 74.4909C46.9893 74.2956 46.983 74.0837 47.0397 73.8846C47.0965 73.6854 47.2136 73.5088 47.375 73.379C47.593 73.204 52.793 69.12 60.142 70.171C60.275 70.186 60.4035 70.2276 60.5201 70.2932C60.6367 70.3588 60.739 70.4472 60.8208 70.5531C60.9027 70.6589 60.9624 70.7801 60.9966 70.9095C61.0307 71.0389 61.0385 71.1738 61.0196 71.3062C61.0006 71.4387 60.9553 71.566 60.8863 71.6806C60.8173 71.7952 60.7259 71.8948 60.6177 71.9735C60.5095 72.0522 60.3866 72.1083 60.2562 72.1387C60.1259 72.169 59.9908 72.1728 59.859 72.15C53.366 71.228 48.672 74.904 48.626 74.941C48.4486 75.0829 48.2282 75.1602 48.001 75.16Z" fill="#F3A492"/>
<path d="M30.754 71C30.5981 71 30.4444 70.9636 30.3051 70.8936C30.1658 70.8237 30.0448 70.7221 29.9518 70.5971C29.8587 70.4721 29.7961 70.327 29.7691 70.1735C29.7421 70.02 29.7513 69.8623 29.796 69.713C30.929 65.94 31.956 59.919 30.694 58.349C30.553 58.171 30.34 57.996 29.852 58.033C28.914 58.105 29.003 60.084 29.004 60.104C29.0167 60.2365 29.0028 60.3702 28.9632 60.4972C28.9236 60.6243 28.859 60.7421 28.7732 60.8439C28.6874 60.9457 28.5822 61.0293 28.4637 61.0899C28.3452 61.1504 28.2158 61.1867 28.0831 61.1967C27.9504 61.2066 27.817 61.1899 27.6908 61.1476C27.5646 61.1053 27.4481 61.0383 27.3482 60.9504C27.2483 60.8625 27.1669 60.7555 27.1088 60.6358C27.0507 60.516 27.0171 60.3859 27.01 60.253C26.907 58.874 27.336 56.218 29.702 56.039C30.758 55.959 31.635 56.326 32.254 57.096C34.625 60.047 32.218 68.602 31.712 70.288C31.6501 70.4939 31.5234 70.6744 31.3509 70.8026C31.1783 70.9309 30.969 71.0001 30.754 71Z" fill="#BBD1D9"/>
<path d="M50.5 66C51.3284 66 52 65.3284 52 64.5C52 63.6716 51.3284 63 50.5 63C49.6716 63 49 63.6716 49 64.5C49 65.3284 49.6716 66 50.5 66Z" fill="#BBD1D9"/>
<path d="M27 75C28.1046 75 29 74.1046 29 73C29 71.8954 28.1046 71 27 71C25.8954 71 25 71.8954 25 73C25 74.1046 25.8954 75 27 75Z" fill="#D96F6E"/>
<path d="M57.5 76C58.3284 76 59 75.3284 59 74.5C59 73.6716 58.3284 73 57.5 73C56.6716 73 56 73.6716 56 74.5C56 75.3284 56.6716 76 57.5 76Z" fill="#BBD1D9"/>
<path d="M48.5 88C49.3284 88 50 87.3284 50 86.5C50 85.6716 49.3284 85 48.5 85C47.6716 85 47 85.6716 47 86.5C47 87.3284 47.6716 88 48.5 88Z" fill="#BBD1D9"/>
<path d="M53 61C54.1046 61 55 60.1046 55 59C55 57.8954 54.1046 57 53 57C51.8954 57 51 57.8954 51 59C51 60.1046 51.8954 61 53 61Z" fill="#FFCC4D"/>
<path d="M57.5 65C58.3284 65 59 64.3284 59 63.5C59 62.6716 58.3284 62 57.5 62C56.6716 62 56 62.6716 56 63.5C56 64.3284 56.6716 65 57.5 65Z" fill="#FFCC4D"/>
<path d="M54.5 69C55.3284 69 56 68.3284 56 67.5C56 66.6716 55.3284 66 54.5 66C53.6716 66 53 66.6716 53 67.5C53 68.3284 53.6716 69 54.5 69Z" fill="#FFCC4D"/>
<path d="M32.5 80C33.3284 80 34 79.3284 34 78.5C34 77.6716 33.3284 77 32.5 77C31.6716 77 31 77.6716 31 78.5C31 79.3284 31.6716 80 32.5 80Z" fill="#FFCC4D"/>
</g>
<g clip-path="url(#clip1)">
<path d="M197.374 63.488C197.485 63.6035 197.576 63.7371 197.642 63.883L197.65 63.875L208.866 89.141L208.855 89.152C209.063 89.555 208.715 90.375 208.002 91.089C207.289 91.802 206.469 92.15 206.066 91.942L206.056 91.952L180.79 80.735L180.798 80.726C180.651 80.656 180.516 80.571 180.403 80.457C178.841 78.895 181.374 73.83 186.059 69.144C190.746 64.458 195.811 61.926 197.374 63.488Z" fill="#FFAC33"/>
<path d="M196 68L208.584 88.506L208.866 89.141L208.855 89.152C209.063 89.555 208.715 90.375 208.002 91.089C207.77 91.321 207.529 91.497 207.293 91.646L192 73L196 68Z" fill="#FDBE61"/>
<path d="M185.988 69.066C181.318 73.738 178.725 78.718 180.199 80.19C181.672 81.664 186.652 79.072 191.325 74.402C195.996 69.73 198.588 64.748 197.115 63.275C195.641 61.802 190.661 64.394 185.988 69.066Z" fill="#F4900C"/>
<path d="M190.41 69.609C190.512 69.6917 190.629 69.7533 190.755 69.7902C190.881 69.8272 191.014 69.8386 191.144 69.824C192.012 69.73 192.742 69.428 193.253 68.951C193.794 68.446 194.061 67.768 193.988 67.089C193.86 65.897 192.664 64.803 190.625 65.023C189.832 65.108 189.478 64.853 189.466 64.731C189.452 64.61 189.743 64.285 190.536 64.199C191.404 64.105 192.134 63.803 192.646 63.326C193.187 62.821 193.455 62.143 193.381 61.464C193.251 60.272 192.056 59.178 190.019 59.399C189.441 59.461 189.136 59.342 189.007 59.265C188.904 59.202 188.863 59.142 188.859 59.107C188.847 58.986 189.134 58.661 189.929 58.575C190.06 58.5611 190.186 58.5215 190.302 58.4585C190.417 58.3955 190.519 58.3104 190.601 58.208C190.683 58.1056 190.744 57.988 190.781 57.8618C190.818 57.7357 190.829 57.6036 190.815 57.473C190.801 57.3424 190.762 57.2158 190.699 57.1006C190.636 56.9853 190.551 56.8836 190.449 56.8012C190.346 56.7189 190.229 56.6576 190.103 56.6208C189.977 56.5841 189.845 56.5726 189.714 56.587C187.677 56.806 186.741 58.129 186.87 59.322C187 60.516 188.195 61.608 190.234 61.389C190.812 61.326 191.114 61.446 191.244 61.523C191.347 61.585 191.389 61.646 191.393 61.68C191.406 61.802 191.117 62.126 190.322 62.212C188.285 62.432 187.349 63.754 187.478 64.947C187.607 66.139 188.802 67.233 190.84 67.012C191.418 66.95 191.722 67.07 191.852 67.146C191.956 67.21 191.996 67.27 192 67.304C192.013 67.425 191.724 67.75 190.93 67.836C190.733 67.8572 190.547 67.9363 190.396 68.0631C190.244 68.19 190.133 68.359 190.078 68.5488C190.022 68.7386 190.024 68.9406 190.083 69.1293C190.142 69.318 190.256 69.4849 190.41 69.609Z" fill="#F3A492"/>
<path d="M178.339 78.857C176.366 78.3 175.005 79.18 174.681 80.335C174.357 81.489 175.059 82.95 177.031 83.505C177.801 83.721 178.032 84.089 178.001 84.206C177.967 84.324 177.576 84.518 176.808 84.301C174.836 83.746 173.475 84.626 173.151 85.78C172.825 86.935 173.529 88.394 175.502 88.95C176.271 89.166 176.503 89.535 176.469 89.652C176.436 89.769 176.046 89.963 175.277 89.747C175.149 89.7076 175.015 89.6941 174.882 89.7073C174.749 89.7206 174.621 89.7603 174.503 89.8242C174.386 89.8881 174.283 89.9748 174.2 90.0792C174.116 90.1837 174.055 90.3037 174.019 90.4323C173.983 90.5609 173.973 90.6954 173.99 90.8279C174.006 90.9603 174.049 91.0881 174.116 91.2037C174.183 91.3192 174.273 91.4202 174.379 91.5006C174.486 91.5811 174.608 91.6393 174.737 91.672C176.708 92.227 178.07 91.349 178.396 90.193C178.72 89.039 178.017 87.58 176.043 87.024C175.273 86.807 175.042 86.44 175.076 86.322C175.108 86.205 175.498 86.01 176.266 86.226C178.24 86.782 179.6 85.904 179.925 84.747C180.25 83.593 179.547 82.134 177.574 81.577C176.806 81.362 176.575 80.992 176.607 80.876C176.641 80.758 177.03 80.564 177.799 80.78C177.928 80.8233 178.064 80.84 178.199 80.8291C178.334 80.8182 178.465 80.7799 178.585 80.7165C178.705 80.6532 178.811 80.5661 178.896 80.4605C178.982 80.355 179.044 80.2333 179.081 80.1027C179.118 79.9721 179.127 79.8354 179.11 79.701C179.092 79.5665 179.047 79.4371 178.977 79.3206C178.908 79.2041 178.816 79.1029 178.706 79.0232C178.596 78.9435 178.471 78.8869 178.339 78.857Z" fill="#BBD1D9"/>
<path d="M185.999 76.16C186.206 76.1597 186.408 76.0952 186.577 75.9754C186.746 75.8556 186.873 75.6863 186.942 75.4909C187.011 75.2956 187.017 75.0837 186.96 74.8846C186.904 74.6854 186.786 74.5088 186.625 74.379C186.407 74.204 181.207 70.12 173.858 71.171C173.725 71.186 173.596 71.2276 173.48 71.2932C173.363 71.3588 173.261 71.4472 173.179 71.5531C173.097 71.6589 173.038 71.7801 173.003 71.9095C172.969 72.0389 172.961 72.1738 172.98 72.3062C172.999 72.4387 173.045 72.566 173.114 72.6806C173.183 72.7952 173.274 72.8948 173.382 72.9735C173.491 73.0522 173.613 73.1083 173.744 73.1387C173.874 73.169 174.009 73.1728 174.141 73.15C180.634 72.228 185.328 75.904 185.374 75.941C185.551 76.0829 185.772 76.1602 185.999 76.16Z" fill="#F3A492"/>
<path d="M203.246 72C203.402 72 203.556 71.9636 203.695 71.8936C203.834 71.8237 203.955 71.7221 204.048 71.5971C204.141 71.4721 204.204 71.327 204.231 71.1735C204.258 71.02 204.249 70.8623 204.204 70.713C203.071 66.94 202.044 60.919 203.306 59.349C203.447 59.171 203.66 58.996 204.148 59.033C205.086 59.105 204.997 61.084 204.996 61.104C204.983 61.2365 204.997 61.3702 205.037 61.4972C205.076 61.6243 205.141 61.7421 205.227 61.8439C205.313 61.9457 205.418 62.0293 205.536 62.0899C205.655 62.1504 205.784 62.1867 205.917 62.1967C206.05 62.2066 206.183 62.1899 206.309 62.1476C206.435 62.1053 206.552 62.0383 206.652 61.9504C206.752 61.8625 206.833 61.7555 206.891 61.6358C206.949 61.516 206.983 61.3859 206.99 61.253C207.093 59.874 206.664 57.218 204.298 57.039C203.242 56.959 202.365 57.326 201.746 58.096C199.375 61.047 201.782 69.602 202.288 71.288C202.35 71.4939 202.477 71.6744 202.649 71.8026C202.822 71.9309 203.031 72.0001 203.246 72Z" fill="#BBD1D9"/>
<path d="M183.5 67C182.672 67 182 66.3284 182 65.5C182 64.6716 182.672 64 183.5 64C184.328 64 185 64.6716 185 65.5C185 66.3284 184.328 67 183.5 67Z" fill="#BBD1D9"/>
<path d="M207 76C205.895 76 205 75.1046 205 74C205 72.8954 205.895 72 207 72C208.105 72 209 72.8954 209 74C209 75.1046 208.105 76 207 76Z" fill="#D96F6E"/>
<path d="M176.5 77C175.672 77 175 76.3284 175 75.5C175 74.6716 175.672 74 176.5 74C177.328 74 178 74.6716 178 75.5C178 76.3284 177.328 77 176.5 77Z" fill="#BBD1D9"/>
<path d="M185.5 89C184.672 89 184 88.3284 184 87.5C184 86.6716 184.672 86 185.5 86C186.328 86 187 86.6716 187 87.5C187 88.3284 186.328 89 185.5 89Z" fill="#BBD1D9"/>
<path d="M181 62C179.895 62 179 61.1046 179 60C179 58.8954 179.895 58 181 58C182.105 58 183 58.8954 183 60C183 61.1046 182.105 62 181 62Z" fill="#FFCC4D"/>
<path d="M176.5 66C175.672 66 175 65.3284 175 64.5C175 63.6716 175.672 63 176.5 63C177.328 63 178 63.6716 178 64.5C178 65.3284 177.328 66 176.5 66Z" fill="#FFCC4D"/>
<path d="M179.5 70C178.672 70 178 69.3284 178 68.5C178 67.6716 178.672 67 179.5 67C180.328 67 181 67.6716 181 68.5C181 69.3284 180.328 70 179.5 70Z" fill="#FFCC4D"/>
<path d="M201.5 81C200.672 81 200 80.3284 200 79.5C200 78.6716 200.672 78 201.5 78C202.328 78 203 78.6716 203 79.5C203 80.3284 202.328 81 201.5 81Z" fill="#FFCC4D"/>
</g>
<path d="M82.3847 63.5C82.9447 63.5 83.3847 63.64 83.7047 63.92C84.038 64.1867 84.2047 64.56 84.2047 65.04C84.2047 65.52 84.038 65.9 83.7047 66.18C83.3847 66.4467 82.9447 66.58 82.3847 66.58C81.8247 66.58 81.378 66.4467 81.0447 66.18C80.7247 65.9 80.5647 65.52 80.5647 65.04C80.5647 64.56 80.7247 64.1867 81.0447 63.92C81.378 63.64 81.8247 63.5 82.3847 63.5ZM83.9447 77.14C83.9447 77.6867 84.038 78.0667 84.2247 78.28C84.4247 78.48 84.758 78.58 85.2247 78.58V79C83.8914 78.9467 83.0047 78.92 82.5647 78.92C82.1514 78.92 81.2247 78.9467 79.7847 79V78.58C80.2647 78.58 80.598 78.48 80.7847 78.28C80.9714 78.0667 81.0647 77.6867 81.0647 77.14V70.84C81.0647 70.2267 80.9714 69.78 80.7847 69.5C80.598 69.22 80.2647 69.08 79.7847 69.08V68.66C80.2114 68.7 80.6247 68.72 81.0247 68.72C82.2114 68.72 83.1847 68.6267 83.9447 68.44V77.14ZM91.3733 63.36C92.1999 63.36 92.9133 63.58 93.5133 64.02C93.7133 64.18 93.8733 64.3933 93.9933 64.66C94.1266 64.9133 94.1933 65.2 94.1933 65.52C94.1933 65.8933 94.0599 66.22 93.7933 66.5C93.5266 66.7667 93.1866 66.9 92.7733 66.9C92.3199 66.9 91.9533 66.7733 91.6733 66.52C91.3933 66.2667 91.2533 65.92 91.2533 65.48C91.2533 65.1333 91.3533 64.8267 91.5533 64.56C91.7533 64.2933 92.0466 64.1067 92.4333 64C92.3933 63.92 92.3066 63.8533 92.1733 63.8C92.0533 63.7467 91.8999 63.72 91.7133 63.72C91.2066 63.72 90.8466 63.8933 90.6333 64.24C90.4866 64.44 90.3866 64.7333 90.3333 65.12C90.2799 65.5067 90.2533 66.0867 90.2533 66.86V68.68H92.3933V69.08H90.2533V76.94C90.2533 77.5533 90.4066 77.98 90.7133 78.22C91.0333 78.46 91.5066 78.58 92.1333 78.58V79L91.5733 78.98C90.0933 78.94 89.1333 78.92 88.6933 78.92C88.2933 78.92 87.4266 78.9467 86.0933 79V78.58C86.5733 78.58 86.9066 78.48 87.0933 78.28C87.2799 78.0667 87.3733 77.6867 87.3733 77.14V69.08H86.0133V68.68H87.3733C87.3733 67.52 87.4666 66.6267 87.6533 66C87.8399 65.36 88.1666 64.8133 88.6333 64.36C88.9266 64.0667 89.3199 63.8267 89.8133 63.64C90.3066 63.4533 90.8266 63.36 91.3733 63.36ZM105.447 68.72C106.113 68.72 106.627 68.7 106.987 68.66V69.06C106.707 69.14 106.453 69.3133 106.227 69.58C106.013 69.8333 105.807 70.2333 105.607 70.78L102.027 80.84C101.76 81.5333 101.467 82.0067 101.147 82.26C100.76 82.5933 100.18 82.76 99.4066 82.76C98.8466 82.76 98.3399 82.62 97.8866 82.34C97.4466 82.0733 97.2266 81.68 97.2266 81.16C97.2266 80.7467 97.3732 80.4133 97.6666 80.16C97.9599 79.92 98.3466 79.8 98.8266 79.8C99.2799 79.8 99.6399 79.9067 99.9066 80.12C100.187 80.3467 100.327 80.66 100.327 81.06C100.327 81.34 100.24 81.5933 100.067 81.82C99.8932 82.06 99.6466 82.24 99.3266 82.36C99.4199 82.3733 99.5732 82.38 99.7866 82.38C100.613 82.38 101.22 81.8533 101.607 80.8L101.927 79.84L97.6866 70.2C97.4732 69.7467 97.2666 69.4467 97.0666 69.3C96.8666 69.1533 96.6599 69.08 96.4466 69.08V68.66C97.3266 68.74 98.2399 68.78 99.1866 68.78C99.9732 68.78 100.9 68.74 101.967 68.66V69.08C101.54 69.08 101.22 69.1133 101.007 69.18C100.807 69.2333 100.707 69.3867 100.707 69.64C100.707 69.7867 100.753 69.9733 100.847 70.2L103.287 76.1L104.667 72.26C104.88 71.6333 104.987 71.1 104.987 70.66C104.987 69.6867 104.493 69.1533 103.507 69.06V68.66C104.133 68.7 104.78 68.72 105.447 68.72ZM112.445 68.38C113.978 68.38 115.178 68.82 116.045 69.7C116.911 70.5667 117.345 71.9467 117.345 73.84C117.345 75.7333 116.911 77.1133 116.045 77.98C115.178 78.8467 113.978 79.28 112.445 79.28C110.925 79.28 109.725 78.8467 108.845 77.98C107.978 77.1133 107.545 75.7333 107.545 73.84C107.545 71.9467 107.978 70.5667 108.845 69.7C109.725 68.82 110.925 68.38 112.445 68.38ZM112.445 68.78C111.871 68.78 111.411 69.2 111.065 70.04C110.731 70.8667 110.565 72.1333 110.565 73.84C110.565 75.5467 110.731 76.8133 111.065 77.64C111.411 78.4667 111.871 78.88 112.445 78.88C113.031 78.88 113.491 78.4733 113.825 77.66C114.158 76.8333 114.325 75.56 114.325 73.84C114.325 72.12 114.151 70.8467 113.805 70.02C113.471 69.1933 113.018 68.78 112.445 68.78ZM128.553 76.82C128.553 77.4333 128.647 77.88 128.833 78.16C129.033 78.44 129.367 78.58 129.833 78.58V79C129.42 78.96 129.007 78.94 128.593 78.94C127.433 78.94 126.46 79.0333 125.673 79.22V77.42C125.06 78.66 123.987 79.28 122.453 79.28C121.453 79.28 120.727 79.02 120.273 78.5C120.06 78.2467 119.9 77.92 119.793 77.52C119.7 77.1067 119.653 76.5667 119.653 75.9V70.84C119.653 70.2267 119.553 69.78 119.353 69.5C119.167 69.22 118.84 69.08 118.373 69.08V68.66C118.787 68.7 119.2 68.72 119.613 68.72C120.773 68.72 121.747 68.6267 122.533 68.44V76.72C122.533 77.28 122.613 77.7 122.773 77.98C122.947 78.26 123.267 78.4 123.733 78.4C124.267 78.4 124.72 78.18 125.093 77.74C125.48 77.2867 125.673 76.7333 125.673 76.08V70.84C125.673 70.2267 125.573 69.78 125.373 69.5C125.187 69.22 124.86 69.08 124.393 69.08V68.66C124.82 68.7 125.233 68.72 125.633 68.72C126.793 68.72 127.767 68.6267 128.553 68.44V76.82ZM132.876 64.56C133.529 64.56 134.003 64.7933 134.296 65.26C134.429 65.46 134.536 65.7067 134.616 66C134.696 66.2933 134.736 66.6 134.736 66.92C134.736 67.6133 134.556 68.24 134.196 68.8C133.849 69.36 133.329 69.8 132.636 70.12L132.456 69.76C132.843 69.6 133.176 69.3533 133.456 69.02C133.749 68.6867 133.923 68.3467 133.976 68C134.016 67.84 134.036 67.6867 134.036 67.54C134.036 67.4067 134.016 67.28 133.976 67.16C133.683 67.48 133.296 67.64 132.816 67.64C132.349 67.64 131.969 67.5067 131.676 67.24C131.383 66.96 131.236 66.58 131.236 66.1C131.236 65.6467 131.389 65.28 131.696 65C132.003 64.7067 132.396 64.56 132.876 64.56ZM142.915 68.38C143.515 68.38 143.968 68.56 144.275 68.92C144.581 69.28 144.735 69.7133 144.735 70.22C144.735 70.7133 144.588 71.12 144.295 71.44C144.015 71.7467 143.641 71.9 143.175 71.9C142.721 71.9 142.361 71.7867 142.095 71.56C141.828 71.32 141.695 71.0067 141.695 70.62C141.695 69.98 141.988 69.46 142.575 69.06C142.521 69.0467 142.441 69.04 142.335 69.04C142.201 69.04 142.095 69.0533 142.015 69.08C141.508 69.16 141.075 69.4667 140.715 70C140.368 70.5333 140.195 71.08 140.195 71.64V76.94C140.195 77.5533 140.341 77.98 140.635 78.22C140.941 78.46 141.421 78.58 142.075 78.58V79C141.888 79 141.735 78.9933 141.615 78.98C140.255 78.94 139.348 78.92 138.895 78.92C138.535 78.92 137.715 78.94 136.435 78.98C136.328 78.9933 136.195 79 136.035 79V78.58C136.515 78.58 136.848 78.48 137.035 78.28C137.221 78.0667 137.315 77.6867 137.315 77.14V70.84C137.315 70.2267 137.221 69.78 137.035 69.5C136.848 69.22 136.515 69.08 136.035 69.08V68.66C136.461 68.7 136.875 68.72 137.275 68.72C138.461 68.72 139.435 68.6267 140.195 68.44V70.3C140.448 69.7267 140.815 69.2667 141.295 68.92C141.775 68.56 142.315 68.38 142.915 68.38ZM150.977 77.64C152.071 77.64 152.951 77.1067 153.617 76.04L153.977 76.16C153.711 77.0267 153.231 77.7667 152.537 78.38C151.857 78.98 151.004 79.28 149.977 79.28C148.564 79.28 147.437 78.8333 146.597 77.94C145.771 77.0333 145.357 75.7 145.357 73.94C145.357 72.14 145.804 70.7667 146.697 69.82C147.591 68.86 148.777 68.38 150.257 68.38C152.764 68.38 154.017 69.86 154.017 72.82H148.397C148.384 73.02 148.377 73.3333 148.377 73.76C148.377 74.64 148.497 75.3733 148.737 75.96C148.991 76.5467 149.311 76.9733 149.697 77.24C150.097 77.5067 150.524 77.64 150.977 77.64ZM150.137 68.8C149.657 68.8 149.257 69.1 148.937 69.7C148.631 70.2867 148.437 71.2 148.357 72.44H151.497C151.524 71.3867 151.417 70.52 151.177 69.84C150.951 69.1467 150.604 68.8 150.137 68.8Z" fill="#D96F6E"/>
<defs>
<filter id="filter0_d" x="0" y="0" width="236" height="148" filterUnits="userSpaceOnUse" color-interpolation-filters="sRGB">
<feFlood flood-opacity="0" result="BackgroundImageFix"/>
<feColorMatrix in="SourceAlpha" type="matrix" values="0 0 0 0 0 0 0 0 0 0 0 0 0 0 0 0 0 0 127 0" result="hardAlpha"/>
<feOffset dx="1" dy="1"/>
<feGaussianBlur stdDeviation="5"/>
<feColorMatrix type="matrix" values="0 0 0 0 0.305882 0 0 0 0 0.215686 0 0 0 0 0.215686 0 0 0 0.2 0"/>
<feBlend mode="normal" in2="BackgroundImageFix" result="effect1_dropShadow"/>
<feBlend mode="normal" in="SourceGraphic" in2="effect1_dropShadow" result="shape"/>
</filter>
<radialGradient id="paint0_radial" cx="0" cy="0" r="1" gradientUnits="userSpaceOnUse" gradientTransform="translate(117 73) rotate(90) scale(64 108)">
<stop stop-color="#DEE9ED"/>
<stop offset="1" stop-color="white" stop-opacity="0"/>
</radialGradient>
<linearGradient id="paint1_linear" x1="46" y1="35" x2="189" y2="35" gradientUnits="userSpaceOnUse">
<stop stop-color="#D96F6E"/>
<stop offset="1" stop-color="#F2D05C"/>
</linearGradient>
<linearGradient id="paint2_linear" x1="46" y1="95" x2="189" y2="95" gradientUnits="userSpaceOnUse">
<stop stop-color="#D96F6E"/>
<stop offset="1" stop-color="#F2D05C"/>
</linearGradient>
<clipPath id="clip0">
<rect width="36" height="36" fill="white" transform="translate(25 55)"/>
</clipPath>
<clipPath id="clip1">
<rect width="36" height="36" fill="white" transform="matrix(-1 0 0 1 209 56)"/>
</clipPath>
</defs>
</svg>
