<svg width="37" height="36" viewBox="0 0 37 36" fill="none" xmlns="http://www.w3.org/2000/svg">
<path fill-rule="evenodd" clip-rule="evenodd" d="M18 23C11.9249 23 7 18.0751 7 12C7 5.92487 11.9249 1 18 1C24.0751 1 29 5.92487 29 12C29 18.0751 24.0751 23 18 23ZM18 21C22.9706 21 27 16.9706 27 12C27 7.02944 22.9706 3 18 3C13.0294 3 9 7.02944 9 12C9 16.9706 13.0294 21 18 21ZM20.7906 14.7906L23.5811 6.41886L15.2094 9.20943L12.4189 17.5811L20.7906 14.7906ZM19.2094 13.2094L15.5811 14.4189L16.7906 10.7906L20.4189 9.58114L19.2094 13.2094Z" fill="#53889D"/>
<path d="M3.97734 28.7C4.47068 28.7 4.91734 28.8133 5.31734 29.04C5.71734 29.26 6.03068 29.5733 6.25734 29.98C6.48401 30.3867 6.59734 30.85 6.59734 31.37C6.59734 31.89 6.48401 32.3533 6.25734 32.76C6.03068 33.1667 5.71734 33.4833 5.31734 33.71C4.91734 33.9367 4.47068 34.05 3.97734 34.05C3.53734 34.05 3.14068 33.9567 2.78734 33.77C2.44068 33.5833 2.16068 33.3133 1.94734 32.96V34H1.26734V26.58H1.97734V29.74C2.19734 29.4 2.47734 29.1433 2.81734 28.97C3.16401 28.79 3.55068 28.7 3.97734 28.7ZM3.92734 33.42C4.29401 33.42 4.62734 33.3367 4.92734 33.17C5.22734 32.9967 5.46068 32.7533 5.62734 32.44C5.80068 32.1267 5.88734 31.77 5.88734 31.37C5.88734 30.97 5.80068 30.6133 5.62734 30.3C5.46068 29.9867 5.22734 29.7467 4.92734 29.58C4.62734 29.4067 4.29401 29.32 3.92734 29.32C3.55401 29.32 3.21734 29.4067 2.91734 29.58C2.62401 29.7467 2.39068 29.9867 2.21734 30.3C2.05068 30.6133 1.96734 30.97 1.96734 31.37C1.96734 31.77 2.05068 32.1267 2.21734 32.44C2.39068 32.7533 2.62401 32.9967 2.91734 33.17C3.21734 33.3367 3.55401 33.42 3.92734 33.42ZM8.72469 29.77C8.89135 29.4167 9.13802 29.15 9.46469 28.97C9.79802 28.79 10.208 28.7 10.6947 28.7V29.39L10.5247 29.38C9.97135 29.38 9.53802 29.55 9.22469 29.89C8.91135 30.23 8.75469 30.7067 8.75469 31.32V34H8.04469V28.74H8.72469V29.77ZM14.0814 34.05C13.5747 34.05 13.1181 33.9367 12.7114 33.71C12.3047 33.4767 11.9847 33.1567 11.7514 32.75C11.5181 32.3433 11.4014 31.8833 11.4014 31.37C11.4014 30.8567 11.5181 30.3967 11.7514 29.99C11.9847 29.5833 12.3047 29.2667 12.7114 29.04C13.1181 28.8133 13.5747 28.7 14.0814 28.7C14.5881 28.7 15.0447 28.8133 15.4514 29.04C15.8581 29.2667 16.1747 29.5833 16.4014 29.99C16.6347 30.3967 16.7514 30.8567 16.7514 31.37C16.7514 31.8833 16.6347 32.3433 16.4014 32.75C16.1747 33.1567 15.8581 33.4767 15.4514 33.71C15.0447 33.9367 14.5881 34.05 14.0814 34.05ZM14.0814 33.42C14.4547 33.42 14.7881 33.3367 15.0814 33.17C15.3814 32.9967 15.6147 32.7533 15.7814 32.44C15.9481 32.1267 16.0314 31.77 16.0314 31.37C16.0314 30.97 15.9481 30.6133 15.7814 30.3C15.6147 29.9867 15.3814 29.7467 15.0814 29.58C14.7881 29.4067 14.4547 29.32 14.0814 29.32C13.7081 29.32 13.3714 29.4067 13.0714 29.58C12.7781 29.7467 12.5447 29.9867 12.3714 30.3C12.2047 30.6133 12.1214 30.97 12.1214 31.37C12.1214 31.77 12.2047 32.1267 12.3714 32.44C12.5447 32.7533 12.7781 32.9967 13.0714 33.17C13.3714 33.3367 13.7081 33.42 14.0814 33.42ZM25.7745 28.74L23.7845 34H23.1145L21.4545 29.69L19.7945 34H19.1245L17.1445 28.74H17.8245L19.4745 33.21L21.1645 28.74H21.7745L23.4545 33.21L25.1245 28.74H25.7745ZM28.1949 34.05C27.7683 34.05 27.3583 33.99 26.9649 33.87C26.5783 33.7433 26.2749 33.5867 26.0549 33.4L26.3749 32.84C26.5949 33.0133 26.8716 33.1567 27.2049 33.27C27.5383 33.3767 27.8849 33.43 28.2449 33.43C28.7249 33.43 29.0783 33.3567 29.3049 33.21C29.5383 33.0567 29.6549 32.8433 29.6549 32.57C29.6549 32.3767 29.5916 32.2267 29.4649 32.12C29.3383 32.0067 29.1783 31.9233 28.9849 31.87C28.7916 31.81 28.5349 31.7533 28.2149 31.7C27.7883 31.62 27.4449 31.54 27.1849 31.46C26.9249 31.3733 26.7016 31.23 26.5149 31.03C26.3349 30.83 26.2449 30.5533 26.2449 30.2C26.2449 29.76 26.4283 29.4 26.7949 29.12C27.1616 28.84 27.6716 28.7 28.3249 28.7C28.6649 28.7 29.0049 28.7467 29.3449 28.84C29.6849 28.9267 29.9649 29.0433 30.1849 29.19L29.8749 29.76C29.4416 29.46 28.9249 29.31 28.3249 29.31C27.8716 29.31 27.5283 29.39 27.2949 29.55C27.0683 29.71 26.9549 29.92 26.9549 30.18C26.9549 30.38 27.0183 30.54 27.1449 30.66C27.2783 30.78 27.4416 30.87 27.6349 30.93C27.8283 30.9833 28.0949 31.04 28.4349 31.1C28.8549 31.18 29.1916 31.26 29.4449 31.34C29.6983 31.42 29.9149 31.5567 30.0949 31.75C30.2749 31.9433 30.3649 32.21 30.3649 32.55C30.3649 33.01 30.1716 33.3767 29.7849 33.65C29.4049 33.9167 28.8749 34.05 28.1949 34.05ZM36.2575 31.59H31.8575C31.8975 32.1367 32.1075 32.58 32.4875 32.92C32.8675 33.2533 33.3475 33.42 33.9275 33.42C34.2542 33.42 34.5542 33.3633 34.8275 33.25C35.1008 33.13 35.3375 32.9567 35.5375 32.73L35.9375 33.19C35.7042 33.47 35.4108 33.6833 35.0575 33.83C34.7108 33.9767 34.3275 34.05 33.9075 34.05C33.3675 34.05 32.8875 33.9367 32.4675 33.71C32.0542 33.4767 31.7308 33.1567 31.4975 32.75C31.2642 32.3433 31.1475 31.8833 31.1475 31.37C31.1475 30.8567 31.2575 30.3967 31.4775 29.99C31.7042 29.5833 32.0108 29.2667 32.3975 29.04C32.7908 28.8133 33.2308 28.7 33.7175 28.7C34.2042 28.7 34.6408 28.8133 35.0275 29.04C35.4142 29.2667 35.7175 29.5833 35.9375 29.99C36.1575 30.39 36.2675 30.85 36.2675 31.37L36.2575 31.59ZM33.7175 29.31C33.2108 29.31 32.7842 29.4733 32.4375 29.8C32.0975 30.12 31.9042 30.54 31.8575 31.06H35.5875C35.5408 30.54 35.3442 30.12 34.9975 29.8C34.6575 29.4733 34.2308 29.31 33.7175 29.31Z" fill="#53889D"/>
</svg>
