<svg width="30" height="36" viewBox="0 0 30 36" fill="none" xmlns="http://www.w3.org/2000/svg">
<path fill-rule="evenodd" clip-rule="evenodd" d="M8.88867 10L14.89 3.99867L20.8913 10H20.89V20H8.89001V10H8.88867ZM6.89001 11.9987L5.4132 13.4755L4 12.0623L13.477 2.58529C14.2574 1.8049 15.5226 1.8049 16.303 2.58529L25.78 12.0623L24.3668 13.4755L22.89 11.9987V20C22.89 21.1046 21.9946 22 20.89 22H8.89001C7.78545 22 6.89001 21.1046 6.89001 20V11.9987Z" fill="#53889D"/>
<path d="M3.8116 28.7C4.4716 28.7 4.99494 28.8933 5.3816 29.28C5.77494 29.66 5.9716 30.2167 5.9716 30.95V34H5.2616V31.02C5.2616 30.4733 5.12494 30.0567 4.8516 29.77C4.57827 29.4833 4.18827 29.34 3.6816 29.34C3.11494 29.34 2.66494 29.51 2.3316 29.85C2.00493 30.1833 1.8416 30.6467 1.8416 31.24V34H1.1316V26.58H1.8416V29.66C2.03494 29.3533 2.3016 29.1167 2.6416 28.95C2.9816 28.7833 3.3716 28.7 3.8116 28.7ZM10.0687 34.05C9.56204 34.05 9.10538 33.9367 8.69871 33.71C8.29204 33.4767 7.97204 33.1567 7.73871 32.75C7.50538 32.3433 7.38871 31.8833 7.38871 31.37C7.38871 30.8567 7.50538 30.3967 7.73871 29.99C7.97204 29.5833 8.29204 29.2667 8.69871 29.04C9.10538 28.8133 9.56204 28.7 10.0687 28.7C10.5754 28.7 11.032 28.8133 11.4387 29.04C11.8454 29.2667 12.162 29.5833 12.3887 29.99C12.622 30.3967 12.7387 30.8567 12.7387 31.37C12.7387 31.8833 12.622 32.3433 12.3887 32.75C12.162 33.1567 11.8454 33.4767 11.4387 33.71C11.032 33.9367 10.5754 34.05 10.0687 34.05ZM10.0687 33.42C10.442 33.42 10.7754 33.3367 11.0687 33.17C11.3687 32.9967 11.602 32.7533 11.7687 32.44C11.9354 32.1267 12.0187 31.77 12.0187 31.37C12.0187 30.97 11.9354 30.6133 11.7687 30.3C11.602 29.9867 11.3687 29.7467 11.0687 29.58C10.7754 29.4067 10.442 29.32 10.0687 29.32C9.69538 29.32 9.35871 29.4067 9.05871 29.58C8.76538 29.7467 8.53204 29.9867 8.35871 30.3C8.19204 30.6133 8.10871 30.97 8.10871 31.37C8.10871 31.77 8.19204 32.1267 8.35871 32.44C8.53204 32.7533 8.76538 32.9967 9.05871 33.17C9.35871 33.3367 9.69538 33.42 10.0687 33.42ZM20.7482 28.7C21.4082 28.7 21.9249 28.89 22.2982 29.27C22.6782 29.65 22.8682 30.21 22.8682 30.95V34H22.1582V31.02C22.1582 30.4733 22.0249 30.0567 21.7582 29.77C21.4982 29.4833 21.1282 29.34 20.6482 29.34C20.1016 29.34 19.6716 29.51 19.3582 29.85C19.0449 30.1833 18.8882 30.6467 18.8882 31.24V34H18.1782V31.02C18.1782 30.4733 18.0449 30.0567 17.7782 29.77C17.5182 29.4833 17.1449 29.34 16.6582 29.34C16.1182 29.34 15.6882 29.51 15.3682 29.85C15.0549 30.1833 14.8982 30.6467 14.8982 31.24V34H14.1882V28.74H14.8682V29.7C15.0549 29.38 15.3149 29.1333 15.6482 28.96C15.9816 28.7867 16.3649 28.7 16.7982 28.7C17.2382 28.7 17.6182 28.7933 17.9382 28.98C18.2649 29.1667 18.5082 29.4433 18.6682 29.81C18.8616 29.4633 19.1382 29.1933 19.4982 29C19.8649 28.8 20.2816 28.7 20.7482 28.7ZM29.3932 31.59H24.9932C25.0332 32.1367 25.2432 32.58 25.6232 32.92C26.0032 33.2533 26.4832 33.42 27.0632 33.42C27.3899 33.42 27.6899 33.3633 27.9632 33.25C28.2366 33.13 28.4732 32.9567 28.6732 32.73L29.0732 33.19C28.8399 33.47 28.5466 33.6833 28.1932 33.83C27.8466 33.9767 27.4632 34.05 27.0432 34.05C26.5032 34.05 26.0232 33.9367 25.6032 33.71C25.1899 33.4767 24.8666 33.1567 24.6332 32.75C24.3999 32.3433 24.2832 31.8833 24.2832 31.37C24.2832 30.8567 24.3932 30.3967 24.6132 29.99C24.8399 29.5833 25.1466 29.2667 25.5332 29.04C25.9266 28.8133 26.3666 28.7 26.8532 28.7C27.3399 28.7 27.7766 28.8133 28.1632 29.04C28.5499 29.2667 28.8532 29.5833 29.0732 29.99C29.2932 30.39 29.4032 30.85 29.4032 31.37L29.3932 31.59ZM26.8532 29.31C26.3466 29.31 25.9199 29.4733 25.5732 29.8C25.2332 30.12 25.0399 30.54 24.9932 31.06H28.7232C28.6766 30.54 28.4799 30.12 28.1332 29.8C27.7932 29.4733 27.3666 29.31 26.8532 29.31Z" fill="#53889D"/>
</svg>
