<svg width="33" height="36" viewBox="0 0 33 36" fill="none" xmlns="http://www.w3.org/2000/svg">
<path fill-rule="evenodd" clip-rule="evenodd" d="M17 23C10.9249 23 6 18.0751 6 12C6 5.92487 10.9249 1 17 1C23.0751 1 28 5.92487 28 12C28 18.0751 23.0751 23 17 23ZM24.3995 17.1246C25.4086 15.6703 26 13.9042 26 12C26 7.02944 21.9706 3 17 3C12.0294 3 8 7.02944 8 12C8 13.9042 8.59138 15.6703 9.6005 17.1246C10.726 15.6381 13.3706 15 17 15C20.6294 15 23.274 15.6381 24.3995 17.1246ZM22.9647 18.7398C22.672 17.6874 20.5694 17 17 17C13.4306 17 11.328 17.6874 11.0353 18.7398C12.6233 20.1462 14.7119 21 17 21C19.2881 21 21.3767 20.1462 22.9647 18.7398ZM17 15C14.7609 15 13 13.4274 13 10C13 7.75576 14.5791 6 17 6C19.4142 6 21 7.92158 21 10.2C21 13.4796 19.2181 15 17 15ZM15 10C15 12.2693 15.8182 13 17 13C18.1777 13 19 12.2984 19 10.2C19 8.95042 18.2157 8 17 8C15.7337 8 15 8.81582 15 10Z" fill="#53889D"/>
<path d="M3.93047 28.7C4.4238 28.7 4.87047 28.8133 5.27047 29.04C5.67047 29.26 5.9838 29.5733 6.21047 29.98C6.43714 30.3867 6.55047 30.85 6.55047 31.37C6.55047 31.8967 6.43714 32.3633 6.21047 32.77C5.9838 33.1767 5.67047 33.4933 5.27047 33.72C4.87714 33.94 4.43047 34.05 3.93047 34.05C3.5038 34.05 3.11714 33.9633 2.77047 33.79C2.43047 33.61 2.15047 33.35 1.93047 33.01V35.94H1.22047V28.74H1.90047V29.78C2.1138 29.4333 2.3938 29.1667 2.74047 28.98C3.0938 28.7933 3.49047 28.7 3.93047 28.7ZM3.88047 33.42C4.24714 33.42 4.58047 33.3367 4.88047 33.17C5.18047 32.9967 5.4138 32.7533 5.58047 32.44C5.7538 32.1267 5.84047 31.77 5.84047 31.37C5.84047 30.97 5.7538 30.6167 5.58047 30.31C5.4138 29.9967 5.18047 29.7533 4.88047 29.58C4.58047 29.4067 4.24714 29.32 3.88047 29.32C3.50714 29.32 3.17047 29.4067 2.87047 29.58C2.57714 29.7533 2.3438 29.9967 2.17047 30.31C2.0038 30.6167 1.92047 30.97 1.92047 31.37C1.92047 31.77 2.0038 32.1267 2.17047 32.44C2.3438 32.7533 2.57714 32.9967 2.87047 33.17C3.17047 33.3367 3.50714 33.42 3.88047 33.42ZM8.67781 29.77C8.84448 29.4167 9.09115 29.15 9.41781 28.97C9.75115 28.79 10.1611 28.7 10.6478 28.7V29.39L10.4778 29.38C9.92448 29.38 9.49115 29.55 9.17781 29.89C8.86448 30.23 8.70781 30.7067 8.70781 31.32V34H7.99781V28.74H8.67781V29.77ZM14.0345 34.05C13.5279 34.05 13.0712 33.9367 12.6645 33.71C12.2579 33.4767 11.9379 33.1567 11.7045 32.75C11.4712 32.3433 11.3545 31.8833 11.3545 31.37C11.3545 30.8567 11.4712 30.3967 11.7045 29.99C11.9379 29.5833 12.2579 29.2667 12.6645 29.04C13.0712 28.8133 13.5279 28.7 14.0345 28.7C14.5412 28.7 14.9979 28.8133 15.4045 29.04C15.8112 29.2667 16.1279 29.5833 16.3545 29.99C16.5879 30.3967 16.7045 30.8567 16.7045 31.37C16.7045 31.8833 16.5879 32.3433 16.3545 32.75C16.1279 33.1567 15.8112 33.4767 15.4045 33.71C14.9979 33.9367 14.5412 34.05 14.0345 34.05ZM14.0345 33.42C14.4079 33.42 14.7412 33.3367 15.0345 33.17C15.3345 32.9967 15.5679 32.7533 15.7345 32.44C15.9012 32.1267 15.9845 31.77 15.9845 31.37C15.9845 30.97 15.9012 30.6133 15.7345 30.3C15.5679 29.9867 15.3345 29.7467 15.0345 29.58C14.7412 29.4067 14.4079 29.32 14.0345 29.32C13.6612 29.32 13.3245 29.4067 13.0245 29.58C12.7312 29.7467 12.4979 29.9867 12.3245 30.3C12.1579 30.6133 12.0745 30.97 12.0745 31.37C12.0745 31.77 12.1579 32.1267 12.3245 32.44C12.4979 32.7533 12.7312 32.9967 13.0245 33.17C13.3245 33.3367 13.6612 33.42 14.0345 33.42ZM19.8941 27.13C19.5874 27.13 19.3541 27.2133 19.1941 27.38C19.0407 27.5467 18.9641 27.7933 18.9641 28.12V28.74H20.5841V29.34H18.9841V34H18.2741V29.34H17.3341V28.74H18.2741V28.09C18.2741 27.61 18.4107 27.23 18.6841 26.95C18.9641 26.67 19.3574 26.53 19.8641 26.53C20.0641 26.53 20.2574 26.56 20.4441 26.62C20.6307 26.6733 20.7874 26.7533 20.9141 26.86L20.6741 27.39C20.4674 27.2167 20.2074 27.13 19.8941 27.13ZM22.3441 28.74H23.0541V34H22.3441V28.74ZM22.7041 27.59C22.5574 27.59 22.4341 27.54 22.3341 27.44C22.2341 27.34 22.1841 27.22 22.1841 27.08C22.1841 26.9467 22.2341 26.83 22.3341 26.73C22.4341 26.63 22.5574 26.58 22.7041 26.58C22.8507 26.58 22.9741 26.63 23.0741 26.73C23.1741 26.8233 23.2241 26.9367 23.2241 27.07C23.2241 27.2167 23.1741 27.34 23.0741 27.44C22.9741 27.54 22.8507 27.59 22.7041 27.59ZM25.0388 26.58H25.7488V34H25.0388V26.58ZM32.3044 31.59H27.9044C27.9444 32.1367 28.1544 32.58 28.5344 32.92C28.9144 33.2533 29.3944 33.42 29.9744 33.42C30.301 33.42 30.601 33.3633 30.8744 33.25C31.1477 33.13 31.3844 32.9567 31.5844 32.73L31.9844 33.19C31.751 33.47 31.4577 33.6833 31.1044 33.83C30.7577 33.9767 30.3744 34.05 29.9544 34.05C29.4144 34.05 28.9344 33.9367 28.5144 33.71C28.101 33.4767 27.7777 33.1567 27.5444 32.75C27.311 32.3433 27.1944 31.8833 27.1944 31.37C27.1944 30.8567 27.3044 30.3967 27.5244 29.99C27.751 29.5833 28.0577 29.2667 28.4444 29.04C28.8377 28.8133 29.2777 28.7 29.7644 28.7C30.251 28.7 30.6877 28.8133 31.0744 29.04C31.461 29.2667 31.7644 29.5833 31.9844 29.99C32.2044 30.39 32.3144 30.85 32.3144 31.37L32.3044 31.59ZM29.7644 29.31C29.2577 29.31 28.831 29.4733 28.4844 29.8C28.1444 30.12 27.951 30.54 27.9044 31.06H31.6344C31.5877 30.54 31.391 30.12 31.0444 29.8C30.7044 29.4733 30.2777 29.31 29.7644 29.31Z" fill="#53889D"/>
</svg>
