<svg width="38" height="36" viewBox="0 0 38 36" fill="none" xmlns="http://www.w3.org/2000/svg">
<path fill-rule="evenodd" clip-rule="evenodd" d="M24.5532 2.00002C23.1056 2 22.1724 2.17246 21.1027 2.69607C20.7066 2.88993 20.335 3.12339 19.99 3.39576C19.6582 3.13866 19.3015 2.91592 18.9218 2.72813C17.8313 2.18878 16.8503 2 15.4545 2C11.7164 2 9 5.09727 9 9.11988C9 12.1578 10.6938 15.0923 13.8488 17.9299C15.5049 19.4193 17.6193 20.8933 19.1336 21.6775L20 22.1261L20.8664 21.6775C22.3807 20.8933 24.4951 19.4193 26.1512 17.9299C29.3062 15.0923 31 12.1578 31 9.11988C31 5.13984 28.2579 2.01536 24.5532 2.00002ZM29 9.11988C29 11.4999 27.5862 13.9493 24.8137 16.4429C23.3022 17.8023 21.359 19.1609 20 19.8737C18.641 19.1609 16.6978 17.8023 15.1863 16.4429C12.4138 13.9493 11 11.4999 11 9.11988C11 6.14772 12.8836 4 15.4545 4C16.5643 4 17.2481 4.13159 18.0351 4.52084C18.5 4.75077 18.9109 5.05437 19.2665 5.43377L20.0023 6.2187L20.7315 5.42755C21.0951 5.03295 21.512 4.72244 21.9819 4.49243C22.7459 4.11849 23.387 4 24.5491 4.00001C27.0882 4.01053 29 6.18896 29 9.11988Z" fill="#53889D"/>
<path d="M8.97953 28.74L6.98953 34H6.31953L4.65953 29.69L2.99953 34H2.32953L0.349531 28.74H1.02953L2.67953 33.21L4.36953 28.74H4.97953L6.65953 33.21L8.32953 28.74H8.97953ZM10.0486 28.74H10.7586V34H10.0486V28.74ZM10.4086 27.59C10.2619 27.59 10.1386 27.54 10.0386 27.44C9.93859 27.34 9.88859 27.22 9.88859 27.08C9.88859 26.9467 9.93859 26.83 10.0386 26.73C10.1386 26.63 10.2619 26.58 10.4086 26.58C10.5553 26.58 10.6786 26.63 10.7786 26.73C10.8786 26.8233 10.9286 26.9367 10.9286 27.07C10.9286 27.2167 10.8786 27.34 10.7786 27.44C10.6786 27.54 10.5553 27.59 10.4086 27.59ZM14.1441 34.05C13.7175 34.05 13.3075 33.99 12.9141 33.87C12.5275 33.7433 12.2241 33.5867 12.0041 33.4L12.3241 32.84C12.5441 33.0133 12.8208 33.1567 13.1541 33.27C13.4875 33.3767 13.8341 33.43 14.1941 33.43C14.6741 33.43 15.0275 33.3567 15.2541 33.21C15.4875 33.0567 15.6041 32.8433 15.6041 32.57C15.6041 32.3767 15.5408 32.2267 15.4141 32.12C15.2875 32.0067 15.1275 31.9233 14.9341 31.87C14.7408 31.81 14.4841 31.7533 14.1641 31.7C13.7375 31.62 13.3941 31.54 13.1341 31.46C12.8741 31.3733 12.6508 31.23 12.4641 31.03C12.2841 30.83 12.1941 30.5533 12.1941 30.2C12.1941 29.76 12.3775 29.4 12.7441 29.12C13.1108 28.84 13.6208 28.7 14.2741 28.7C14.6141 28.7 14.9541 28.7467 15.2941 28.84C15.6341 28.9267 15.9141 29.0433 16.1341 29.19L15.8241 29.76C15.3908 29.46 14.8741 29.31 14.2741 29.31C13.8208 29.31 13.4775 29.39 13.2441 29.55C13.0175 29.71 12.9041 29.92 12.9041 30.18C12.9041 30.38 12.9675 30.54 13.0941 30.66C13.2275 30.78 13.3908 30.87 13.5841 30.93C13.7775 30.9833 14.0441 31.04 14.3841 31.1C14.8041 31.18 15.1408 31.26 15.3941 31.34C15.6475 31.42 15.8641 31.5567 16.0441 31.75C16.2241 31.9433 16.3141 32.21 16.3141 32.55C16.3141 33.01 16.1208 33.3767 15.7341 33.65C15.3541 33.9167 14.8241 34.05 14.1441 34.05ZM20.3067 28.7C20.9667 28.7 21.4901 28.8933 21.8767 29.28C22.2701 29.66 22.4667 30.2167 22.4667 30.95V34H21.7567V31.02C21.7567 30.4733 21.6201 30.0567 21.3467 29.77C21.0734 29.4833 20.6834 29.34 20.1767 29.34C19.6101 29.34 19.1601 29.51 18.8267 29.85C18.5001 30.1833 18.3367 30.6467 18.3367 31.24V34H17.6267V26.58H18.3367V29.66C18.5301 29.3533 18.7967 29.1167 19.1367 28.95C19.4767 28.7833 19.8667 28.7 20.3067 28.7ZM24.3943 26.58H25.1043V34H24.3943V26.58ZM27.0798 28.74H27.7898V34H27.0798V28.74ZM27.4398 27.59C27.2932 27.59 27.1698 27.54 27.0698 27.44C26.9698 27.34 26.9198 27.22 26.9198 27.08C26.9198 26.9467 26.9698 26.83 27.0698 26.73C27.1698 26.63 27.2932 26.58 27.4398 26.58C27.5865 26.58 27.7098 26.63 27.8098 26.73C27.9098 26.8233 27.9598 26.9367 27.9598 27.07C27.9598 27.2167 27.9098 27.34 27.8098 27.44C27.7098 27.54 27.5865 27.59 27.4398 27.59ZM31.1754 34.05C30.7487 34.05 30.3387 33.99 29.9454 33.87C29.5587 33.7433 29.2554 33.5867 29.0354 33.4L29.3554 32.84C29.5754 33.0133 29.8521 33.1567 30.1854 33.27C30.5187 33.3767 30.8654 33.43 31.2254 33.43C31.7054 33.43 32.0587 33.3567 32.2854 33.21C32.5187 33.0567 32.6354 32.8433 32.6354 32.57C32.6354 32.3767 32.5721 32.2267 32.4454 32.12C32.3187 32.0067 32.1587 31.9233 31.9654 31.87C31.7721 31.81 31.5154 31.7533 31.1954 31.7C30.7687 31.62 30.4254 31.54 30.1654 31.46C29.9054 31.3733 29.6821 31.23 29.4954 31.03C29.3154 30.83 29.2254 30.5533 29.2254 30.2C29.2254 29.76 29.4087 29.4 29.7754 29.12C30.1421 28.84 30.6521 28.7 31.3054 28.7C31.6454 28.7 31.9854 28.7467 32.3254 28.84C32.6654 28.9267 32.9454 29.0433 33.1654 29.19L32.8554 29.76C32.4221 29.46 31.9054 29.31 31.3054 29.31C30.8521 29.31 30.5087 29.39 30.2754 29.55C30.0487 29.71 29.9354 29.92 29.9354 30.18C29.9354 30.38 29.9987 30.54 30.1254 30.66C30.2587 30.78 30.4221 30.87 30.6154 30.93C30.8087 30.9833 31.0754 31.04 31.4154 31.1C31.8354 31.18 32.1721 31.26 32.4254 31.34C32.6787 31.42 32.8954 31.5567 33.0754 31.75C33.2554 31.9433 33.3454 32.21 33.3454 32.55C33.3454 33.01 33.1521 33.3767 32.7654 33.65C32.3854 33.9167 31.8554 34.05 31.1754 34.05ZM37.428 33.68C37.2946 33.8 37.128 33.8933 36.928 33.96C36.7346 34.02 36.5313 34.05 36.318 34.05C35.8246 34.05 35.4446 33.9167 35.178 33.65C34.9113 33.3833 34.778 33.0067 34.778 32.52V29.34H33.838V28.74H34.778V27.59H35.488V28.74H37.088V29.34H35.488V32.48C35.488 32.7933 35.5646 33.0333 35.718 33.2C35.878 33.36 36.1046 33.44 36.398 33.44C36.5446 33.44 36.6846 33.4167 36.818 33.37C36.958 33.3233 37.078 33.2567 37.178 33.17L37.428 33.68Z" fill="#53889D"/>
</svg>
