<svg width="40" height="40" viewBox="0 0 40 40" fill="none" xmlns="http://www.w3.org/2000/svg">
<circle cx="20" cy="20" r="20" fill="#53889D"/>
<path fill-rule="evenodd" clip-rule="evenodd" d="M10.55 8.75H24.95C25.9441 8.75 26.75 9.55589 26.75 10.55V24.95C26.75 25.9441 25.9441 26.75 24.95 26.75L23.375 26.75H21.125L10.55 26.75C9.55589 26.75 8.75 25.9441 8.75 24.95V10.55C8.75 9.55589 9.55589 8.75 10.55 8.75ZM23.375 24.95H24.95V20.0049H23.375V24.95ZM24.95 17.7549V15.5H24.5C23.8787 15.5 23.375 16.0037 23.375 16.625V17.7549H24.95ZM24.95 13.25H24.5C22.636 13.25 21.125 14.761 21.125 16.625V17.7549H19.0247V20.0049H21.125V24.95H10.55V10.55H24.95V13.25Z" fill="white"/>
</svg>
