<svg width="40" height="40" viewBox="0 0 40 40" fill="none" xmlns="http://www.w3.org/2000/svg">
<circle cx="20" cy="20" r="20" fill="#53889D"/>
<path fill-rule="evenodd" clip-rule="evenodd" d="M24.5 8.75H15.5C11.7721 8.75 8.75 11.7721 8.75 15.5V24.5C8.75 28.2279 11.7721 31.25 15.5 31.25H24.5C28.2279 31.25 31.25 28.2279 31.25 24.5V15.5C31.25 11.7721 28.2279 8.75 24.5 8.75ZM11 15.5C11 13.0147 13.0147 11 15.5 11H24.5C26.9853 11 29 13.0147 29 15.5V24.5C29 26.9853 26.9853 29 24.5 29H15.5C13.0147 29 11 26.9853 11 24.5V15.5ZM20 25.625C16.8934 25.625 14.375 23.1066 14.375 20C14.375 16.8934 16.8934 14.375 20 14.375C23.1066 14.375 25.625 16.8934 25.625 20C25.625 23.1066 23.1066 25.625 20 25.625ZM20 23.375C21.864 23.375 23.375 21.864 23.375 20C23.375 18.136 21.864 16.625 20 16.625C18.136 16.625 16.625 18.136 16.625 20C16.625 21.864 18.136 23.375 20 23.375ZM26.75 14.375C26.75 14.9963 26.2463 15.5 25.625 15.5C25.0037 15.5 24.5 14.9963 24.5 14.375C24.5 13.7537 25.0037 13.25 25.625 13.25C26.2463 13.25 26.75 13.7537 26.75 14.375Z" fill="white"/>
</svg>
