<svg width="42" height="42" viewBox="0 0 42 42" fill="none" xmlns="http://www.w3.org/2000/svg">
<ellipse cx="21.1724" cy="21.1724" rx="20" ry="20" fill="#53889D"/>
<path fill-rule="evenodd" clip-rule="evenodd" d="M21.3541 24.7708L23.0625 26.4792L19.6458 29.8958C17.2871 32.2545 13.4629 32.2545 11.1041 29.8958C8.74543 27.5371 8.74543 23.7129 11.1041 21.3542L14.5208 17.9375L16.2291 19.6458L12.8125 23.0625C11.3972 24.4777 11.3972 26.7723 12.8125 28.1875C14.2277 29.6027 16.5222 29.6027 17.9375 28.1875L21.3541 24.7708ZM19.6458 16.2292L17.9375 14.5208L21.3541 11.1042C23.7129 8.74545 27.5371 8.74545 29.8958 11.1042C32.2545 13.4629 32.2545 17.2871 29.8958 19.6458L26.4791 23.0625L24.7708 21.3542L28.1875 17.9375C29.6027 16.5223 29.6027 14.2277 28.1875 12.8125C26.7722 11.3973 24.4777 11.3973 23.0625 12.8125L19.6458 16.2292ZM15.375 23.9167L17.0833 25.625L25.625 17.0833L23.9166 15.375L15.375 23.9167Z" fill="white"/>
</svg>
